<?xml version="1.0" encoding="UTF-8" standalone="no"?>
<svg width="72px" height="72px" viewBox="0 0 72 72" version="1.1" xmlns="http://www.w3.org/2000/svg" xmlns:xlink="http://www.w3.org/1999/xlink">
    <!-- Generator: sketchtool 44.1 (41455) - http://www.bohemiancoding.com/sketch -->
    <title>70C0C927-E4C3-4141-92A1-075127B6441B</title>
    <desc>Created with sketchtool.</desc>
    <defs>
        <circle id="path-1" cx="27.4285714" cy="27.4285714" r="27.4285714"></circle>
    </defs>
    <g id="Finales" stroke="none" stroke-width="1" fill="none" fill-rule="evenodd">
        <g id="avatar-claro" transform="translate(-1.000000, -1.000000)">
            <g transform="translate(1.000000, 1.000000)">
                <circle id="circle" fill="#FFF7AE" cx="36" cy="36" r="36"></circle>
                <g id="Group-4" transform="translate(8.571429, 6.000000)">
                    <g id="Group-11">
                        <mask id="mask-2" fill="white">
                            <use xlink:href="#path-1"></use>
                        </mask>
                        <g id="circle"></g>
                        <path d="M27.7975851,75.6066406 C17.5705937,75.6066406 9.27997905,67.316026 9.27997905,57.0890346 C9.27997905,46.8620432 17.5705937,38.5714286 27.7975851,38.5714286 C38.0245765,38.5714286 46.3151911,46.8620432 46.3151911,57.0890346 C46.3151911,67.316026 38.0245765,75.6066406 27.7975851,75.6066406 Z M27.7975851,73.8923549 C37.0778026,73.8923549 44.6009054,66.3692522 44.6009054,57.0890346 C44.6009054,47.808817 37.0778026,40.2857143 27.7975851,40.2857143 C18.5173675,40.2857143 10.9942648,47.808817 10.9942648,57.0890346 C10.9942648,66.3692522 18.5173675,73.8923549 27.7975851,73.8923549 Z" id="circle" fill="#FFD100" fill-rule="nonzero" mask="url(#mask-2)"></path>
                    </g>
                    <g id="Group-10" transform="translate(14.428571, 6.714286)">
                        <path d="M13.430645,22.6539167 C18.0816715,22.6539167 21.8520734,18.8835148 21.8520734,14.2324883 C21.8520734,9.58146183 18.0816715,5.81105991 13.430645,5.81105991 L13.430645,7.52534562 C17.1348976,7.52534562 20.1377877,10.5282357 20.1377877,14.2324883 C20.1377877,17.9367409 17.1348976,20.939631 13.430645,20.939631 L13.430645,22.6539167 Z" id="circle" fill="#FFD100" fill-rule="nonzero"></path>
                        <path d="M13.3662058,27.3913978 C6.06315201,27.3913978 0.142857143,21.471103 0.142857143,14.1680492 C0.142857143,6.86499533 6.06315201,0.944700461 13.3662058,0.944700461 C20.6692597,0.944700461 26.5895545,6.86499533 26.5895545,14.1680492 C26.5895545,21.471103 20.6692597,27.3913978 13.3662058,27.3913978 Z M13.3662058,25.6771121 C19.7224858,25.6771121 24.8752688,20.5243291 24.8752688,14.1680492 C24.8752688,7.81176919 19.7224858,2.65898618 13.3662058,2.65898618 C7.00992587,2.65898618 1.85714286,7.81176919 1.85714286,14.1680492 C1.85714286,20.5243291 7.00992587,25.6771121 13.3662058,25.6771121 Z" id="circle" fill="#FFD100" fill-rule="nonzero"></path>
                        <rect id="Rectangle-4" fill="#FFF6B3" transform="translate(21.312712, 5.035840) rotate(-315.000000) translate(-21.312712, -5.035840) " x="18.9071816" y="1.82846702" width="4.81105991" height="6.41474654"></rect>
                    </g>
                </g>
            </g>
        </g>
    </g>
</svg>